Coordinates
version=1
nRows=8
nColumns=36
inDegrees=yes

Units are S.I. units (second, meters, Newtons, ...)
If the header above contains a line with 'inDegrees', this indicates whether rotational values are in degrees (yes) or radians (no).

endheader
time	pelvis_tilt	pelvis_list	pelvis_rotation	pelvis_tx	pelvis_ty	pelvis_tz	hip_flexion_r	hip_adduction_r	hip_rotation_r	knee_angle_r	knee_angle_r_beta	ankle_angle_r	subtalar_angle_r	mtp_angle_r	hip_flexion_l	hip_adduction_l	hip_rotation_l	knee_angle_l	knee_angle_l_beta	ankle_angle_l	subtalar_angle_l	mtp_angle_l	lumbar_extension	lumbar_bending	lumbar_rotation	arm_flex_r	arm_add_r	arm_rot_r	elbow_flex_r	pro_sup_r	arm_flex_l	arm_add_l	arm_rot_l	elbow_flex_l	pro_sup_l
      0.97200000	     -9.57353288	     11.34698002	     -1.24180094	      3.28953199	      0.94480320	      0.24926929	    -35.87783513	     -9.81432573	    -10.40024498	     35.50415675	      0.61966443	    -28.76793397	    -10.99679747	     -4.52168730	     64.59249559	      8.77293049	    -10.08044686	     50.72771923	      0.88536572	      2.48254533	    -12.23225594	    -14.06747873	     -5.92682719	    -17.50025443	      7.76685410	     51.27691453	    -24.44621770	      4.54959688	    125.73187657	     90.00021046	    -77.59317453	    -11.77998574	    -30.77856500	     57.56743115	     90.00021046
      0.97600000	     -9.19981283	     11.49371913	     -0.99298286	      3.32750280	      0.94664716	      0.24915623	    -35.58771913	    -10.15876481	    -10.79564726	     40.57448376	      0.70815833	    -29.49659206	    -10.85584824	     -5.73730353	     62.29606579	      9.37272478	     -9.71681327	     45.01211834	      0.78560967	      2.29723866	     -8.69269873	    -18.70452435	     -6.77810283	    -17.80408683	      7.14833600	     49.16000892	    -24.67735420	      4.48077172	    126.89594653	     90.00021046	    -76.26193924	    -11.53959987	    -30.69555900	     57.81546117	     90.00021046
      0.98000000	     -8.92780140	     11.11618256	     -0.78520754	      3.36519132	      0.94836611	      0.24943416	    -34.93597100	     -9.98888364	    -10.55565653	     45.81040067	      0.79954232	    -29.99576704	    -10.69992201	     -6.24215251	     60.11572380	      9.48782607	     -9.24326274	     39.83528316	      0.69525685	      1.86269929	     -5.21151683	    -22.23481326	     -7.50790083	    -17.52585893	      6.66476524	     46.71105698	    -24.86755684	      4.40250447	    127.77281857	     90.00021046	    -74.75873396	    -11.44023045	    -30.29828910	     58.17008106	     90.00021046
      0.98400000	     -8.64331395	     10.13923891	     -0.62370150	      3.40258395	      0.94974941	      0.25038939	    -33.98536379	     -9.10987397	     -9.71199669	     51.30673888	      0.89547152	    -30.42699097	    -11.40069672	    -10.11476977	     58.10876193	      8.96968791	     -8.91681250	     35.52021030	      0.61994462	      1.32757722	     -1.88724050	    -24.39825496	     -8.25703899	    -16.62927409	      6.29255546	     44.11400432	    -25.01739882	      4.37190382	    128.26611831	     90.00021046	    -73.17453803	    -11.38408889	    -29.76563409	     58.78012220	     90.00021046
      0.98800000	     -8.34909563	      8.93920854	     -0.46818798	      3.43990750	      0.95082030	      0.25173505	    -32.92167578	     -7.92269668	     -8.64108551	     56.77904416	      0.99098127	    -30.83043032	    -11.36708641	    -13.02044987	     56.27884575	      8.14243555	     -8.92111137	     31.96223932	      0.55784631	      0.58811813	      1.08988243	    -27.01910122	     -8.99134089	    -15.48193841	      5.97090616	     41.35397526	    -25.05828190	      4.41483697	    128.43415363	     90.00021046	    -71.58739411	    -11.45633382	    -29.05368235	     59.64963416	     90.00021046
      0.99200000	     -8.00055150	      7.78507779	     -0.34502156	      3.47718951	      0.95170727	      0.25316485	    -31.83501018	     -6.71964047	     -7.67274557	     62.28084716	      1.08700584	    -30.74861615	    -11.65152475	    -13.83478213	     54.50910394	      7.25029774	     -9.40855141	     29.00287420	      0.50619565	     -0.07635038	      3.41558814	    -29.25085544	     -9.78241404	    -14.37872541	      5.70227992	     38.48651439	    -25.05583009	      4.42965565	    128.19673633	     90.00021046	    -69.94840564	    -11.63698386	    -28.19699625	     60.73365078	     90.00021046
      0.99600000	     -7.52350350	      6.91061311	     -0.32830666	      3.51462786	      0.95255051	      0.25424198	    -30.86254279	     -5.90741670	     -6.96258664	     67.76323912	      1.18269163	    -30.28133832	    -11.76027613	    -14.06754551	     52.67259248	      6.51245242	    -10.40035470	     26.60253517	      0.46430183	     -0.43124786	      4.85274738	    -30.23976308	    -10.68651178	    -13.51132052	      5.45757730	     35.58740827	    -24.98624852	      4.52323079	    127.53058804	     90.00021046	    -68.24023090	    -11.83022060	    -27.15405475	     62.01326534	     90.00021046
      1.00000000	     -6.98984516	      6.28209343	     -0.27423374	      3.55219362	      0.95325550	      0.25508226	    -29.98490108	     -5.29080532	     -6.47313916	     73.13603224	      1.27646456	    -29.44423785	    -11.73396830	    -14.18862262	     50.84471497	      6.02503992	    -11.72819022	     24.77213364	      0.43235529	     -0.54949197	      5.26447439	    -30.14677013	    -11.64844377	    -12.86290309	      5.14080455	     32.63375631	    -24.83835588	      4.62986306	    126.46811368	     90.00021046	    -66.47037458	    -12.15267456	    -25.96671593	     63.33486647	     90.00021046
